<svg width="42" height="42" viewBox="0 0 42 42" fill="none" xmlns="http://www.w3.org/2000/svg">
<path d="M21.0914 7.57812C24.1957 7.57812 27.1174 8.21726 29.8566 9.58682C32.5957 10.9564 34.8783 12.8738 36.7044 15.339C36.9783 15.7042 37.0696 16.0694 36.9783 16.3433C36.887 16.6173 36.7044 16.8912 36.4305 17.0738C36.1566 17.2564 35.8827 17.3477 35.6088 17.3477C35.3348 17.3477 35.0609 17.1651 34.8783 16.7999C33.3261 14.6086 31.3174 12.8738 28.9435 11.6868C26.4783 10.4999 23.9218 9.95204 21.1827 9.95204C18.4435 9.95204 15.887 10.4999 13.5131 11.6868C10.9566 12.8738 9.03919 14.6086 7.48701 16.8912C7.2131 17.2564 6.93919 17.439 6.66527 17.439C6.30005 17.439 6.02614 17.439 5.84353 17.2564C5.56962 17.0738 5.38701 16.7999 5.29571 16.526C5.2044 16.252 5.29571 15.9781 5.47832 15.7042C7.2131 13.1477 9.49571 11.139 12.2348 9.76943C15.0653 8.30856 17.987 7.57812 21.0914 7.57812Z" fill="#531A9E"/>
<path d="M21.0913 11.7783C25.0173 11.7783 28.3956 13.1479 31.226 15.7957C34.0565 18.4435 35.426 21.7305 35.426 25.6566C35.426 27.2088 34.8782 28.487 33.7826 29.5827C32.6869 30.6783 31.4087 31.2261 29.8565 31.2261C28.3043 31.2261 27.026 30.6783 25.9304 29.674C24.8347 28.6696 24.2869 27.3914 24.2869 25.8392C24.2869 24.9261 24.013 24.1957 23.3739 23.5566C22.7347 22.9174 22.0043 22.6435 21.0913 22.6435C20.1782 22.6435 19.4478 22.9174 18.8087 23.5566C18.1695 24.1957 17.8956 24.9261 17.8956 25.8392C17.8956 28.5783 18.7173 30.9522 20.2695 32.8696C21.8217 34.787 24.1043 36.0653 27.026 36.7044C27.3913 36.7957 27.5739 36.9783 27.7565 37.2522C27.8478 37.5261 27.9391 37.8001 27.8478 38.074C27.7565 38.3479 27.5739 38.6218 27.3913 38.8044C27.1173 38.987 26.8434 39.0783 26.3869 38.987C23.0087 38.2566 20.3608 36.7044 18.4434 34.3305C16.526 31.9566 15.5217 29.1261 15.5217 25.7479C15.5217 24.1957 16.0695 22.8261 17.1652 21.8218C18.2608 20.7261 19.5391 20.1783 21.0913 20.1783C22.6434 20.1783 23.9217 20.7261 25.0173 21.7305C26.113 22.7348 26.6608 24.1044 26.6608 25.5653C26.6608 26.4783 26.9347 27.2088 27.5739 27.8479C28.213 28.487 28.9434 28.7609 29.8565 28.7609C30.7695 28.7609 31.5 28.487 32.1391 27.8479C32.7782 27.2088 33.0521 26.4783 33.0521 25.5653C33.0521 22.2783 31.8652 19.5392 29.5826 17.3479C27.2087 15.1566 24.4695 13.9696 21.0913 13.9696C17.8043 13.9696 14.9739 15.0653 12.6913 17.3479C10.4087 19.6305 9.2217 22.3696 9.2217 25.6566C9.2217 26.6609 9.313 27.6653 9.4043 28.6696C9.58691 29.674 9.76952 30.6783 10.226 31.774C10.3173 32.1392 10.3173 32.4131 10.226 32.7783C10.1347 33.0522 9.86083 33.2348 9.58691 33.4174C9.2217 33.5088 8.94778 33.5088 8.67387 33.4174C8.39996 33.3261 8.12604 33.0522 8.03474 32.687C7.66952 31.774 7.39561 30.6783 7.213 29.5827C7.03039 28.487 6.93909 27.2088 6.93909 25.8392C6.93909 21.9131 8.30865 18.5348 11.1391 15.887C13.7869 13.0566 17.1652 11.7783 21.0913 11.7783Z" fill="#8F34F7"/>
<path d="M21.0914 3.37842C23.0087 3.37842 24.8348 3.56103 26.6609 4.01755C28.487 4.47407 30.2218 5.1132 31.8653 6.02624C32.2305 6.20885 32.4131 6.48277 32.5044 6.75668C32.5957 7.03059 32.5044 7.30451 32.4131 7.57842C32.2305 7.85233 32.0479 8.03494 31.774 8.21755C31.5001 8.40016 31.1348 8.30885 30.7696 8.12624C29.2174 7.30451 27.6653 6.75668 26.0218 6.30016C24.3783 5.93494 22.7348 5.66103 21.0001 5.66103C19.2653 5.66103 17.6218 5.84364 15.9783 6.20885C14.3348 6.57407 12.7827 7.2132 11.3218 8.03494C10.9566 8.21755 10.6827 8.30885 10.3174 8.21755C9.95223 8.12624 9.76962 7.94364 9.58701 7.66972C9.49571 7.39581 9.4044 7.1219 9.49571 6.84798C9.58701 6.57407 9.76962 6.30016 10.0435 6.11755C11.687 5.2045 13.4218 4.47407 15.3392 4.01755C17.3479 3.56103 19.174 3.37842 21.0914 3.37842Z" fill="#531A9E"/>
<path d="M21.0913 15.978C23.8305 15.978 26.2044 16.8911 28.1218 18.8085C30.0392 20.7259 31.0435 23.0085 31.0435 25.6563C31.0435 26.0215 30.9522 26.3867 30.7696 26.5693C30.587 26.8432 30.3131 26.9345 29.8565 26.9345C29.4913 26.9345 29.2174 26.8432 28.9435 26.5693C28.7609 26.2954 28.5783 26.0215 28.5783 25.6563C28.5783 23.5563 27.8478 21.8215 26.387 20.4519C24.9261 18.9911 23.1 18.3519 21 18.3519C18.9 18.3519 17.0739 19.0824 15.6131 20.5432C14.1522 22.0041 13.4218 23.7389 13.4218 25.8389C13.4218 28.0302 13.787 30.0389 14.5174 31.6824C15.2479 33.3259 16.3435 34.9693 17.8957 36.6128C18.1696 36.8867 18.2609 37.1606 18.2609 37.4345C18.2609 37.7085 18.1696 37.9824 17.987 38.2563C17.7131 38.5302 17.4392 38.6215 17.0739 38.6215C16.7087 38.6215 16.4348 38.4389 16.1609 38.2563C14.4261 36.5215 13.1479 34.6041 12.3261 32.6867C11.5044 30.678 11.0479 28.4867 11.0479 25.9302C11.0479 23.1911 12.0522 20.9085 13.9696 18.9911C16.0696 16.8911 18.3522 15.978 21.0913 15.978Z" fill="#531A9E"/>
<path d="M21.0912 24.4697C21.4565 24.4697 21.7304 24.561 21.913 24.8349C22.0956 25.1089 22.1869 25.3828 22.1869 25.6567C22.1869 27.9393 22.9173 29.7654 24.4695 31.0436C26.0217 32.3219 27.8478 32.961 29.9478 32.961C30.2217 32.961 30.4956 32.961 30.8608 32.8697C31.226 32.7784 31.5913 32.7784 31.8652 32.7784C32.2304 32.7784 32.5043 32.8697 32.6869 33.0523C32.9608 33.2349 33.0521 33.5089 33.0521 33.7828C33.0521 34.148 32.9608 34.4219 32.7782 34.6045C32.5956 34.7871 32.413 34.9697 32.1391 35.061C31.6826 35.2436 31.226 35.3349 30.8608 35.3349C30.4956 35.3349 30.1304 35.4262 29.9478 35.4262C27.2086 35.4262 24.7434 34.6045 22.826 32.8697C20.8173 31.1349 19.813 28.761 19.813 25.8393C19.813 25.4741 19.9043 25.2002 20.0869 25.0176C20.4521 24.561 20.726 24.4697 21.0912 24.4697Z" fill="#531A9E"/>
</svg>
