<svg width="42" height="42" viewBox="0 0 42 42" fill="none" xmlns="http://www.w3.org/2000/svg">
<path d="M30.9521 7.57842C28.213 4.83929 24.926 3.46973 21 3.46973C17.0739 3.46973 13.7869 4.83929 11.0478 7.57842C8.30865 10.3176 6.93909 13.6045 6.93909 17.5306C6.93909 19.2654 7.213 21.0002 7.85213 22.5523C8.49126 24.1045 9.313 25.5654 10.4087 26.7523V40.2654L21 36.7045L31.5 40.1741V26.7523C32.5956 25.5654 33.5087 24.1045 34.0565 22.5523C34.6956 21.0002 34.9695 19.2654 34.9695 17.5306C34.9695 13.6045 33.6 10.3176 30.9521 7.57842ZM28.0304 35.061L21 33.2349L13.9695 35.061V29.6741C14.9739 30.2219 16.0695 30.6784 17.2565 31.0436C18.4434 31.4089 19.6304 31.5002 20.9087 31.5002C22.1869 31.5002 23.4652 31.3176 24.5608 31.0436C25.7478 30.6784 26.8434 30.2219 27.8478 29.6741V35.061H28.0304ZM28.4869 24.9262C26.4782 26.9349 23.9217 28.0306 21 28.0306C18.0782 28.0306 15.613 27.0262 13.513 24.9262C11.5043 22.9176 10.5 20.361 10.5 17.5306C10.5 14.6089 11.5043 12.1436 13.513 10.1349C15.5217 8.12625 18.0782 7.0306 21 7.0306C23.9217 7.0306 26.3869 8.03494 28.4869 10.1349C30.4956 12.1436 31.5 14.6089 31.5 17.5306C31.5 20.4523 30.4956 22.9176 28.4869 24.9262Z" fill="#531A9E"/>
<path d="M26.2956 17.5305C26.2956 18.9914 25.7478 20.2696 24.7435 21.274C23.7391 22.2783 22.4609 22.8262 21 22.8262C19.5391 22.8262 18.2609 22.2783 17.2565 21.274C16.2522 20.2696 15.7043 18.9914 15.7043 17.5305C15.7043 16.0696 16.2522 14.7914 17.2565 13.787C18.2609 12.7827 19.5391 12.2349 21 12.2349C22.4609 12.2349 23.7391 12.7827 24.7435 13.787C25.7478 14.7914 26.2956 16.0696 26.2956 17.5305Z" fill="#8F34F7"/>
</svg>
