<svg width="43" height="42" viewBox="0 0 43 42" fill="none" xmlns="http://www.w3.org/2000/svg">
<path d="M21.4999 21.4563C22.6869 21.4563 23.6912 20.452 23.6912 19.265C23.6912 18.0781 22.6869 17.0737 21.4999 17.0737C20.3129 17.0737 19.3086 18.0781 19.3086 19.265C19.3086 20.452 20.3129 21.4563 21.4999 21.4563Z" fill="#531A9E"/>
<path d="M12.2783 11.7783V26.6609H30.6305V11.7783H12.2783ZM21.5001 24.1044C18.8522 24.1044 16.6609 21.9131 16.6609 19.2653C16.6609 16.6175 18.8522 14.4261 21.5001 14.4261C24.1479 14.4261 26.3392 16.6175 26.3392 19.2653C26.3392 21.9131 24.1479 24.1044 21.5001 24.1044Z" fill="#8F34F7"/>
<path d="M9.72168 15.3394H4.42603V23.1915H9.72168V15.3394Z" fill="#8F34F7"/>
<path d="M33.7347 3.92627H9.26516C6.61733 3.92627 4.42603 6.11757 4.42603 8.7654V12.6915H9.72168V10.5002C9.72168 9.76975 10.2695 9.22192 10.9999 9.22192H31.9999C32.7304 9.22192 33.2782 9.76975 33.2782 10.5002V28.0306C33.2782 28.7611 32.7304 29.3089 31.9999 29.3089H10.9999C10.2695 29.3089 9.72168 28.7611 9.72168 28.0306V25.8393H4.42603V29.7654C4.42603 32.4132 6.61733 34.6045 9.26516 34.6045H9.72168V36.7958C9.72168 37.5263 10.2695 38.0741 10.9999 38.0741C11.7304 38.0741 12.2782 37.5263 12.2782 36.7958V34.6045H30.6304V36.7958C30.6304 37.5263 31.1782 38.0741 31.9086 38.0741C32.6391 38.0741 33.1869 37.5263 33.1869 36.7958V34.6045H33.6434C36.2912 34.6045 38.4825 32.4132 38.4825 29.7654V8.7654C38.5738 6.11757 36.3825 3.92627 33.7347 3.92627Z" fill="#531A9E"/>
</svg>
