<svg width="42" height="42" viewBox="0 0 42 42" fill="none" xmlns="http://www.w3.org/2000/svg">
<path d="M19.2652 24.4696C19.2652 24.9262 19.0826 25.3827 18.8087 25.7479C18.4435 26.1131 18.0783 26.2044 17.5304 26.2044C17.0739 26.2044 16.6174 26.0218 16.2522 25.7479C15.887 25.474 15.7957 25.0175 15.7957 24.4696C15.7957 24.0131 15.9783 23.5566 16.2522 23.1914C16.6174 22.8262 16.9826 22.7349 17.5304 22.7349C17.987 22.7349 18.4435 22.9175 18.8087 23.1914C19.0826 23.5566 19.2652 24.0131 19.2652 24.4696Z" fill="#1C1B1F"/>
<path d="M25.7479 14.5174C26.1131 14.8826 26.2044 15.2478 26.2044 15.7956C26.2044 16.3435 26.0218 16.7087 25.7479 17.0739C25.3827 17.4391 25.0175 17.5304 24.4696 17.5304C24.0131 17.5304 23.5566 17.3478 23.1914 17.0739C22.8262 16.7087 22.7349 16.3435 22.7349 15.7956C22.7349 15.2478 22.9175 14.8826 23.1914 14.5174C23.5566 14.1522 23.9218 14.0609 24.4696 14.0609C25.0175 13.9696 25.3827 14.1522 25.7479 14.5174Z" fill="#8F34F7"/>
<path d="M21.0001 3.46973L7.03052 8.76538V19.448C7.03052 23.9219 8.30878 27.9393 10.9566 31.5002C13.6044 35.1523 16.9827 37.4349 21.0001 38.4393C25.0175 37.4349 28.3957 35.061 31.0436 31.5002C33.6914 27.848 34.9697 23.8306 34.9697 19.448V8.76538L21.0001 3.46973ZM26.9349 26.9349C26.2044 27.6654 25.474 27.9393 24.4696 27.9393H17.4392C16.4349 27.9393 15.6131 27.5741 14.974 26.9349C14.3349 26.2958 13.9696 25.4741 13.9696 24.4697C13.9696 23.5567 14.3349 22.6436 14.974 22.0045C15.6131 21.3654 16.4349 21.0002 17.4392 21.0002H24.4696C25.474 21.0002 26.2957 21.3654 26.9349 22.0045C27.574 22.6436 27.9392 23.5567 27.9392 24.4697C28.0305 25.4741 27.6653 26.2958 26.9349 26.9349ZM26.9349 18.261C26.2044 18.9915 25.474 19.2654 24.4696 19.2654H17.4392C16.4349 19.2654 15.6131 18.9002 14.974 18.261C14.3349 17.6219 13.9696 16.7089 13.9696 15.7958C13.9696 14.8828 14.3349 13.9697 14.974 13.3306C15.6131 12.6915 16.4349 12.3262 17.4392 12.3262H24.4696C25.474 12.3262 26.2957 12.6915 26.9349 13.3306C27.574 13.9697 27.9392 14.8828 27.9392 15.7958C27.9392 16.7089 27.6653 17.5306 26.9349 18.261Z" fill="#531A9E"/>
</svg>
